<?xml version="1.0" encoding="UTF-8" standalone="no"?>
<!-- Created with Inkscape (http://www.inkscape.org/) -->

<svg
   xmlns:dc="http://purl.org/dc/elements/1.1/"
   xmlns:cc="http://creativecommons.org/ns#"
   xmlns:rdf="http://www.w3.org/1999/02/22-rdf-syntax-ns#"
   xmlns:svg="http://www.w3.org/2000/svg"
   xmlns="http://www.w3.org/2000/svg"
   xmlns:sodipodi="http://sodipodi.sourceforge.net/DTD/sodipodi-0.dtd"
   xmlns:inkscape="http://www.inkscape.org/namespaces/inkscape"
   width="90mm"
   height="59mm"
   viewBox="0 0 90 59"
   version="1.1"
   id="svg6271"
   inkscape:version="0.92.4 (5da689c313, 2019-01-14)"
   sodipodi:docname="PhoneApp.svg">
  <defs
     id="defs6265" />
  <sodipodi:namedview
     id="base"
     pagecolor="#ffffff"
     bordercolor="#666666"
     borderopacity="1.0"
     inkscape:pageopacity="0.0"
     inkscape:pageshadow="2"
     inkscape:zoom="1.88"
     inkscape:cx="311.19027"
     inkscape:cy="171.42655"
     inkscape:document-units="mm"
     inkscape:current-layer="layer1"
     showgrid="false"
     inkscape:window-width="1920"
     inkscape:window-height="1003"
     inkscape:window-x="-9"
     inkscape:window-y="-9"
     inkscape:window-maximized="1"
     inkscape:snap-global="false"
     width="104mm" />
  <metadata
     id="metadata6268">
    <rdf:RDF>
      <cc:Work
         rdf:about="">
        <dc:format>image/svg+xml</dc:format>
        <dc:type
           rdf:resource="http://purl.org/dc/dcmitype/StillImage" />
        <dc:title></dc:title>
      </cc:Work>
    </rdf:RDF>
  </metadata>
  <g
     inkscape:label="Layer 1"
     inkscape:groupmode="layer"
     id="layer1"
     transform="translate(0,-238)">
    <g
       id="g80"
       transform="matrix(0.17638888,0,0,-0.17638889,11.414158,268.91259)"
       inkscape:export-xdpi="40.457138"
       inkscape:export-ydpi="40.457138"
       style="fill:#919191;fill-opacity:1;stroke:none;stroke-opacity:1"
       inkscape:export-filename="C:\Users\User PC\Documents\ParkTransit\Accounting\Accounts Admin\logo.png">
      <path
         d="M 0,0 C 9.149,0 15.498,5.882 15.498,14.471 15.498,23.061 9.149,28.943 0,28.943 H -11.951 V 0 Z m -16.806,33.424 h 16.712 c 12.698,0 20.634,-8.216 20.634,-18.953 0,-10.737 -7.936,-18.952 -20.634,-18.952 h -11.857 v -27.45 h -4.855 z"
         style="fill:#919191;fill-opacity:1;fill-rule:nonzero;stroke:none;stroke-opacity:1"
         id="path82"
         inkscape:connector-curvature="0" />
    </g>
    <g
       id="g84"
       transform="matrix(0.17638888,0,0,-0.17638889,21.779248,269.42317)"
       inkscape:export-xdpi="40.457138"
       inkscape:export-ydpi="40.457138"
       inkscape:export-filename="C:\Users\User PC\Documents\ParkTransit\Accounting\Accounts Admin\logo.png">
      <path
         d="m 0,0 c 0,0 -4.574,9.896 -15.405,9.896 -9.523,0 -16.058,-7.749 -16.058,-17.645 0,-9.897 6.535,-17.646 16.058,-17.646 10.831,0 15.405,9.896 15.405,9.896 z M 4.855,13.538 V -29.036 H 0.467 v 7.843 c 0,0 -4.855,-8.963 -15.966,-8.963 -11.763,0 -21.006,9.149 -21.006,22.407 0,13.258 9.243,22.408 21.006,22.408 11.111,0 15.966,-8.964 15.966,-8.964 v 7.843 z"
         style="fill:#919191;fill-opacity:1;fill-rule:nonzero;stroke:none"
         id="path86"
         inkscape:connector-curvature="0" />
    </g>
    <g
       id="g88"
       transform="matrix(0.17638888,0,0,-0.17638889,28.742058,267.0352)"
       inkscape:export-xdpi="40.457138"
       inkscape:export-ydpi="40.457138"
       inkscape:export-filename="C:\Users\User PC\Documents\ParkTransit\Accounting\Accounts Admin\logo.png">
      <path
         d="m 0,0 -2.054,-4.668 c 0,0 -1.774,1.026 -5.696,1.026 -7.375,0 -10.83,-8.215 -10.83,-8.215 v -30.717 h -4.855 V 0 h 4.388 v -6.909 c 0,0 3.642,8.03 12.418,8.03 C -2.614,1.121 0,0 0,0"
         style="fill:#919191;fill-opacity:1;fill-rule:nonzero;stroke:none"
         id="path90"
         inkscape:connector-curvature="0" />
    </g>
    <g
       id="g92"
       transform="matrix(0.17638888,0,0,-0.17638889,30.662263,270.79)"
       inkscape:export-xdpi="40.457138"
       inkscape:export-ydpi="40.457138"
       inkscape:export-filename="C:\Users\User PC\Documents\ParkTransit\Accounting\Accounts Admin\logo.png">
      <path
         d="M 0,0 V -21.287 H -4.856 V 49.296 H 0 V 1.774 l 21.287,19.513 h 6.815 L 5.975,0.934 30.249,-21.287 h -7.188 z"
         style="fill:#919191;fill-opacity:1;fill-rule:nonzero;stroke:none"
         id="path94"
         inkscape:connector-curvature="0" />
    </g>
    <g
       id="g96"
       transform="matrix(0.17638888,0,0,-0.17638889,38.304948,263.8074)"
       inkscape:export-xdpi="40.457138"
       inkscape:export-ydpi="40.457138"
       inkscape:export-filename="C:\Users\User PC\Documents\ParkTransit\Accounting\Accounts Admin\logo.png">
      <path
         d="M 0,0 H -19.701 V 4.481 H 24.554 V 0 H 4.854 V -60.874 H 0 Z"
         style="fill:#ff5533;fill-opacity:1;fill-rule:nonzero;stroke:none"
         id="path98"
         inkscape:connector-curvature="0" />
    </g>
    <g
       id="g100"
       transform="matrix(0.17638888,0,0,-0.17638889,46.524263,267.0352)"
       inkscape:export-xdpi="40.457138"
       inkscape:export-ydpi="40.457138"
       inkscape:export-filename="C:\Users\User PC\Documents\ParkTransit\Accounting\Accounts Admin\logo.png">
      <path
         d="m 0,0 -2.054,-4.668 c 0,0 -1.774,1.026 -5.696,1.026 -7.375,0 -10.83,-8.215 -10.83,-8.215 v -30.717 h -4.854 V 0 h 4.388 v -6.909 c 0,0 3.641,8.03 12.417,8.03 C -2.614,1.121 0,0 0,0"
         style="fill:#ff5533;fill-opacity:1;fill-rule:nonzero;stroke:none"
         id="path102"
         inkscape:connector-curvature="0" />
    </g>
    <g
       id="g104"
       transform="matrix(0.17638888,0,0,-0.17638889,53.014297,269.42317)"
       inkscape:export-xdpi="40.457138"
       inkscape:export-ydpi="40.457138"
       inkscape:export-filename="C:\Users\User PC\Documents\ParkTransit\Accounting\Accounts Admin\logo.png">
      <path
         d="m 0,0 c 0,0 -4.574,9.896 -15.405,9.896 -9.523,0 -16.058,-7.749 -16.058,-17.645 0,-9.897 6.535,-17.646 16.058,-17.646 10.831,0 15.405,9.896 15.405,9.896 z M 4.855,13.538 V -29.036 H 0.468 v 7.843 c 0,0 -4.856,-8.963 -15.966,-8.963 -11.764,0 -21.007,9.149 -21.007,22.407 0,13.258 9.243,22.408 21.007,22.408 11.11,0 15.966,-8.964 15.966,-8.964 v 7.843 z"
         style="fill:#ff5533;fill-opacity:1;fill-rule:nonzero;stroke:none"
         id="path106"
         inkscape:connector-curvature="0" />
    </g>
    <g
       id="g108"
       transform="matrix(0.17638888,0,0,-0.17638889,62.00272,269.7525)"
       inkscape:export-xdpi="40.457138"
       inkscape:export-ydpi="40.457138"
       inkscape:export-filename="C:\Users\User PC\Documents\ParkTransit\Accounting\Accounts Admin\logo.png">
      <path
         d="m 0,0 v -27.169 h -4.855 v 26.422 c 0,8.776 -5.136,12.511 -12.044,12.511 -9.43,0 -13.165,-9.523 -13.165,-9.523 v -29.41 h -4.854 v 42.574 h 4.387 V 7.656 c 0,0 4.109,8.87 14.565,8.87 C -8.029,16.526 0,11.578 0,0"
         style="fill:#ff5533;fill-opacity:1;fill-rule:nonzero;stroke:none"
         id="path110"
         inkscape:connector-curvature="0" />
    </g>
    <g
       id="g112"
       transform="matrix(0.17638888,0,0,-0.17638889,63.90296,272.56862)"
       inkscape:export-xdpi="40.457138"
       inkscape:export-ydpi="40.457138"
       inkscape:export-filename="C:\Users\User PC\Documents\ParkTransit\Accounting\Accounts Admin\logo.png">
      <path
         d="m 0,0 c 0,0 4.294,-7.562 14.378,-7.562 4.668,0 11.11,1.867 11.11,7.469 0,4.855 -5.228,6.349 -11.857,7.843 -9.337,2.053 -15.125,5.601 -15.125,12.697 0,6.069 5.695,12.044 15.032,12.044 9.989,0 15.218,-5.975 15.218,-5.975 l -3.174,-3.548 c 0,0 -4.388,4.761 -12.044,4.761 -5.789,0 -10.084,-2.894 -10.084,-7.282 0,-5.228 5.602,-6.722 12.791,-8.31 7.937,-1.773 14.285,-4.575 14.285,-12.23 0,-8.123 -8.122,-12.231 -16.152,-12.231 -12.605,0 -18.206,9.056 -18.206,9.056 z"
         style="fill:#ff5533;fill-opacity:1;fill-rule:nonzero;stroke:none"
         id="path114"
         inkscape:connector-curvature="0" />
    </g>
    <path
       d="m 70.73076,267.03513 h 0.85619 v 7.50958 h -0.85619 z m 0.4281,-3.09598 c 0.3623,0 0.65863,0.29633 0.65863,0.65864 0,0.3623 -0.29633,0.65881 -0.65863,0.65881 -0.36231,0 -0.65864,-0.29651 -0.65864,-0.65881 0,-0.36231 0.29633,-0.65864 0.65864,-0.65864"
       style="fill:#ff5533;fill-opacity:1;fill-rule:nonzero;stroke:none;stroke-width:0.17638887"
       id="path116"
       inkscape:connector-curvature="0"
       inkscape:export-xdpi="40.457138"
       inkscape:export-ydpi="40.457138"
       inkscape:export-filename="C:\Users\User PC\Documents\ParkTransit\Accounting\Accounts Admin\logo.png" />
    <g
       id="g118"
       transform="matrix(0.17638888,0,0,-0.17638889,72.78087,267.0352)"
       inkscape:export-xdpi="40.457138"
       inkscape:export-ydpi="40.457138"
       inkscape:export-filename="C:\Users\User PC\Documents\ParkTransit\Accounting\Accounts Admin\logo.png">
      <path
         d="m 0,0 h 9.243 v 13.725 h 4.855 V 0 H 28.569 V -4.482 H 14.098 v -25.675 c 0,-4.761 1.68,-8.776 7.469,-8.776 3.362,0 6.35,1.96 6.35,1.96 l 1.866,-4.2 c 0,0 -4.108,-2.521 -8.403,-2.521 -8.309,0 -12.137,5.601 -12.137,12.604 V -4.482 H 0 Z"
         style="fill:#ff5533;fill-opacity:1;fill-rule:nonzero;stroke:none"
         id="path120"
         inkscape:connector-curvature="0" />
    </g>
    <path
       sodipodi:nodetypes="ccccccccccccc"
       inkscape:connector-curvature="0"
       id="path124"
       style="fill:#ff5533;fill-opacity:1;fill-rule:nonzero;stroke:none;stroke-width:0.17638889"
       d="m 49.864537,245.81418 v 17.20268 h 0.749653 v -16.45302 h 31.15098 v 40.2149 H 50.61419 l -0.03627,-9.88436 -0.74134,0.002 0.02795,10.63247 h 32.65029 v -41.71421 z" />
    <rect
       style="fill:none;fill-opacity:1;stroke:none;stroke-width:0.53250003;stroke-miterlimit:4;stroke-dasharray:none;stroke-opacity:1"
       id="rect1102"
       width="83.971581"
       height="47.086864"
       x="41.322968"
       y="226.89549"
       ry="0"
       inkscape:export-xdpi="40.457138"
       inkscape:export-ydpi="40.457138"
       inkscape:export-filename="C:\Users\User PC\Documents\ParkTransit\Accounting\Accounts Admin\logo.png" />
    <rect
       style="opacity:1;fill:#ff5533;fill-opacity:1;stroke:#ffffff;stroke-width:0.26492956;stroke-linejoin:round;stroke-miterlimit:4;stroke-dasharray:none;stroke-dashoffset:0;stroke-opacity:1"
       id="rect860-4-9-2"
       width="5.9140549"
       height="2.4117434"
       x="-215.97998"
       y="-375.09869"
       ry="0"
       transform="matrix(1,0,-0.75176959,-0.65942588,0,0)" />
    <rect
       style="opacity:1;fill:#ff5533;fill-opacity:1;stroke:none;stroke-width:0.31356803;stroke-linejoin:round;stroke-miterlimit:4;stroke-dasharray:none;stroke-dashoffset:0;stroke-opacity:1"
       id="rect860-4-1-6-1-3"
       width="4.4748683"
       height="1.9242467"
       x="398.37302"
       y="245.79727"
       ry="0"
       transform="matrix(0.79070566,0.6121965,-0.99999995,-3.0440602e-4,0,0)"
       inkscape:transform-center-x="-2.8080699"
       inkscape:transform-center-y="-0.97943476" />
    <rect
       style="opacity:1;fill:#ff5533;fill-opacity:1;stroke:none;stroke-width:0;stroke-linejoin:round;stroke-miterlimit:4;stroke-dasharray:none;stroke-dashoffset:0;stroke-opacity:1"
       id="rect1640-1"
       width="2.6631355"
       height="2.5353258"
       x="-218.33879"
       y="286.35233"
       transform="matrix(-1,0,-0.5084711,0.86107905,0,0)"
       inkscape:transform-center-x="-0.6536235"
       inkscape:transform-center-y="-1.5878256" />
    <rect
       style="opacity:1;fill:#ff5533;fill-opacity:1;stroke:#ffffff;stroke-width:0.25671649;stroke-linejoin:round;stroke-miterlimit:4;stroke-dasharray:none;stroke-dashoffset:0;stroke-opacity:1"
       id="rect860-4-9-2-6"
       width="5.4839458"
       height="2.442137"
       x="-337.7811"
       y="-396.5885"
       ry="0"
       transform="matrix(-1,0,0.68842028,-0.72531201,0,0)" />
    <rect
       style="opacity:1;fill:#ff5533;fill-opacity:1;stroke:none;stroke-width:0.30213913;stroke-linejoin:round;stroke-miterlimit:4;stroke-dasharray:none;stroke-dashoffset:0;stroke-opacity:1"
       id="rect860-4-1-6-1-3-4"
       width="4.4804621"
       height="1.7843027"
       x="416.79916"
       y="367.01859"
       ry="0"
       transform="matrix(-0.73228494,0.68099836,0.99999993,-3.6563116e-4,0,0)"
       inkscape:transform-center-x="2.6038924"
       inkscape:transform-center-y="-1.090876" />
    <rect
       style="opacity:1;fill:#ff5533;fill-opacity:1;stroke:none;stroke-width:0;stroke-linejoin:round;stroke-miterlimit:4;stroke-dasharray:none;stroke-dashoffset:0;stroke-opacity:1"
       id="rect1640-1-0"
       width="2.4694545"
       height="2.709455"
       x="-82.468178"
       y="319.56741"
       transform="matrix(1,0,0.44119026,0.89741359,0,0)"
       inkscape:transform-center-x="0.60602303"
       inkscape:transform-center-y="-1.7684188" />
  </g>
</svg>
