<?xml version="1.0" encoding="UTF-8" standalone="no"?>
<!-- Created with Inkscape (http://www.inkscape.org/) -->

<svg
   xmlns:dc="http://purl.org/dc/elements/1.1/"
   xmlns:cc="http://creativecommons.org/ns#"
   xmlns:rdf="http://www.w3.org/1999/02/22-rdf-syntax-ns#"
   xmlns:svg="http://www.w3.org/2000/svg"
   xmlns="http://www.w3.org/2000/svg"
   xmlns:sodipodi="http://sodipodi.sourceforge.net/DTD/sodipodi-0.dtd"
   xmlns:inkscape="http://www.inkscape.org/namespaces/inkscape"
   width="168mm"
   height="96mm"
   viewBox="0 0 168 96"
   version="1.1"
   id="svg6271"
   inkscape:version="0.92.4 (5da689c313, 2019-01-14)"
   sodipodi:docname="PhoneApp.svg">
  <defs
     id="defs6265" />
  <sodipodi:namedview
     id="base"
     pagecolor="#ffffff"
     bordercolor="#666666"
     borderopacity="1.0"
     inkscape:pageopacity="0.0"
     inkscape:pageshadow="2"
     inkscape:zoom="1.88"
     inkscape:cx="404.80729"
     inkscape:cy="171.42655"
     inkscape:document-units="mm"
     inkscape:current-layer="layer1"
     showgrid="false"
     inkscape:window-width="1920"
     inkscape:window-height="1003"
     inkscape:window-x="-9"
     inkscape:window-y="-9"
     inkscape:window-maximized="1"
     inkscape:snap-global="false" />
  <metadata
     id="metadata6268">
    <rdf:RDF>
      <cc:Work
         rdf:about="">
        <dc:format>image/svg+xml</dc:format>
        <dc:type
           rdf:resource="http://purl.org/dc/dcmitype/StillImage" />
        <dc:title></dc:title>
      </cc:Work>
    </rdf:RDF>
  </metadata>
  <g
     inkscape:label="Layer 1"
     inkscape:groupmode="layer"
     id="layer1"
     transform="translate(0,-201)">
    <g
       id="g80"
       transform="matrix(0.35277777,0,0,-0.35277777,15.516896,253.60967)"
       inkscape:export-xdpi="40.457138"
       inkscape:export-ydpi="40.457138"
       style="fill:#919191;fill-opacity:1;stroke:none;stroke-opacity:1"
       inkscape:export-filename="C:\Users\User PC\Documents\ParkTransit\Accounting\Accounts Admin\logo.png">
      <path
         d="M 0,0 C 9.149,0 15.498,5.882 15.498,14.471 15.498,23.061 9.149,28.943 0,28.943 H -11.951 V 0 Z m -16.806,33.424 h 16.712 c 12.698,0 20.634,-8.216 20.634,-18.953 0,-10.737 -7.936,-18.952 -20.634,-18.952 h -11.857 v -27.45 h -4.855 z"
         style="fill:#919191;fill-opacity:1;fill-rule:nonzero;stroke:none;stroke-opacity:1"
         id="path82"
         inkscape:connector-curvature="0" />
    </g>
    <g
       id="g84"
       transform="matrix(0.35277777,0,0,-0.35277777,36.247076,254.63082)"
       inkscape:export-xdpi="40.457138"
       inkscape:export-ydpi="40.457138"
       inkscape:export-filename="C:\Users\User PC\Documents\ParkTransit\Accounting\Accounts Admin\logo.png">
      <path
         d="m 0,0 c 0,0 -4.574,9.896 -15.405,9.896 -9.523,0 -16.058,-7.749 -16.058,-17.645 0,-9.897 6.535,-17.646 16.058,-17.646 10.831,0 15.405,9.896 15.405,9.896 z M 4.855,13.538 V -29.036 H 0.467 v 7.843 c 0,0 -4.855,-8.963 -15.966,-8.963 -11.763,0 -21.006,9.149 -21.006,22.407 0,13.258 9.243,22.408 21.006,22.408 11.111,0 15.966,-8.964 15.966,-8.964 v 7.843 z"
         style="fill:#919191;fill-opacity:1;fill-rule:nonzero;stroke:none"
         id="path86"
         inkscape:connector-curvature="0" />
    </g>
    <g
       id="g88"
       transform="matrix(0.35277777,0,0,-0.35277777,50.172696,249.85488)"
       inkscape:export-xdpi="40.457138"
       inkscape:export-ydpi="40.457138"
       inkscape:export-filename="C:\Users\User PC\Documents\ParkTransit\Accounting\Accounts Admin\logo.png">
      <path
         d="m 0,0 -2.054,-4.668 c 0,0 -1.774,1.026 -5.696,1.026 -7.375,0 -10.83,-8.215 -10.83,-8.215 v -30.717 h -4.855 V 0 h 4.388 v -6.909 c 0,0 3.642,8.03 12.418,8.03 C -2.614,1.121 0,0 0,0"
         style="fill:#919191;fill-opacity:1;fill-rule:nonzero;stroke:none"
         id="path90"
         inkscape:connector-curvature="0" />
    </g>
    <g
       id="g92"
       transform="matrix(0.35277777,0,0,-0.35277777,54.013106,257.36449)"
       inkscape:export-xdpi="40.457138"
       inkscape:export-ydpi="40.457138"
       inkscape:export-filename="C:\Users\User PC\Documents\ParkTransit\Accounting\Accounts Admin\logo.png">
      <path
         d="M 0,0 V -21.287 H -4.856 V 49.296 H 0 V 1.774 l 21.287,19.513 h 6.815 L 5.975,0.934 30.249,-21.287 h -7.188 z"
         style="fill:#919191;fill-opacity:1;fill-rule:nonzero;stroke:none"
         id="path94"
         inkscape:connector-curvature="0" />
    </g>
    <g
       id="g96"
       transform="matrix(0.35277777,0,0,-0.35277777,69.298476,243.39929)"
       inkscape:export-xdpi="40.457138"
       inkscape:export-ydpi="40.457138"
       inkscape:export-filename="C:\Users\User PC\Documents\ParkTransit\Accounting\Accounts Admin\logo.png">
      <path
         d="M 0,0 H -19.701 V 4.481 H 24.554 V 0 H 4.854 V -60.874 H 0 Z"
         style="fill:#ff5533;fill-opacity:1;fill-rule:nonzero;stroke:none"
         id="path98"
         inkscape:connector-curvature="0" />
    </g>
    <g
       id="g100"
       transform="matrix(0.35277777,0,0,-0.35277777,85.737106,249.85488)"
       inkscape:export-xdpi="40.457138"
       inkscape:export-ydpi="40.457138"
       inkscape:export-filename="C:\Users\User PC\Documents\ParkTransit\Accounting\Accounts Admin\logo.png">
      <path
         d="m 0,0 -2.054,-4.668 c 0,0 -1.774,1.026 -5.696,1.026 -7.375,0 -10.83,-8.215 -10.83,-8.215 v -30.717 h -4.854 V 0 h 4.388 v -6.909 c 0,0 3.641,8.03 12.417,8.03 C -2.614,1.121 0,0 0,0"
         style="fill:#ff5533;fill-opacity:1;fill-rule:nonzero;stroke:none"
         id="path102"
         inkscape:connector-curvature="0" />
    </g>
    <g
       id="g104"
       transform="matrix(0.35277777,0,0,-0.35277777,98.717175,254.63082)"
       inkscape:export-xdpi="40.457138"
       inkscape:export-ydpi="40.457138"
       inkscape:export-filename="C:\Users\User PC\Documents\ParkTransit\Accounting\Accounts Admin\logo.png">
      <path
         d="m 0,0 c 0,0 -4.574,9.896 -15.405,9.896 -9.523,0 -16.058,-7.749 -16.058,-17.645 0,-9.897 6.535,-17.646 16.058,-17.646 10.831,0 15.405,9.896 15.405,9.896 z M 4.855,13.538 V -29.036 H 0.468 v 7.843 c 0,0 -4.856,-8.963 -15.966,-8.963 -11.764,0 -21.007,9.149 -21.007,22.407 0,13.258 9.243,22.408 21.007,22.408 11.11,0 15.966,-8.964 15.966,-8.964 v 7.843 z"
         style="fill:#ff5533;fill-opacity:1;fill-rule:nonzero;stroke:none"
         id="path106"
         inkscape:connector-curvature="0" />
    </g>
    <g
       id="g108"
       transform="matrix(0.35277777,0,0,-0.35277777,116.69403,255.28949)"
       inkscape:export-xdpi="40.457138"
       inkscape:export-ydpi="40.457138"
       inkscape:export-filename="C:\Users\User PC\Documents\ParkTransit\Accounting\Accounts Admin\logo.png">
      <path
         d="m 0,0 v -27.169 h -4.855 v 26.422 c 0,8.776 -5.136,12.511 -12.044,12.511 -9.43,0 -13.165,-9.523 -13.165,-9.523 v -29.41 h -4.854 v 42.574 h 4.387 V 7.656 c 0,0 4.109,8.87 14.565,8.87 C -8.029,16.526 0,11.578 0,0"
         style="fill:#ff5533;fill-opacity:1;fill-rule:nonzero;stroke:none"
         id="path110"
         inkscape:connector-curvature="0" />
    </g>
    <g
       id="g112"
       transform="matrix(0.35277777,0,0,-0.35277777,120.49451,260.92173)"
       inkscape:export-xdpi="40.457138"
       inkscape:export-ydpi="40.457138"
       inkscape:export-filename="C:\Users\User PC\Documents\ParkTransit\Accounting\Accounts Admin\logo.png">
      <path
         d="m 0,0 c 0,0 4.294,-7.562 14.378,-7.562 4.668,0 11.11,1.867 11.11,7.469 0,4.855 -5.228,6.349 -11.857,7.843 -9.337,2.053 -15.125,5.601 -15.125,12.697 0,6.069 5.695,12.044 15.032,12.044 9.989,0 15.218,-5.975 15.218,-5.975 l -3.174,-3.548 c 0,0 -4.388,4.761 -12.044,4.761 -5.789,0 -10.084,-2.894 -10.084,-7.282 0,-5.228 5.602,-6.722 12.791,-8.31 7.937,-1.773 14.285,-4.575 14.285,-12.23 0,-8.123 -8.122,-12.231 -16.152,-12.231 -12.605,0 -18.206,9.056 -18.206,9.056 z"
         style="fill:#ff5533;fill-opacity:1;fill-rule:nonzero;stroke:none"
         id="path114"
         inkscape:connector-curvature="0" />
    </g>
    <path
       d="m 134.15011,249.85474 h 1.71238 v 15.01916 h -1.71238 z m 0.85619,-6.19196 c 0.7246,0 1.31727,0.59267 1.31727,1.31728 0,0.7246 -0.59267,1.31762 -1.31727,1.31762 -0.72461,0 -1.31728,-0.59302 -1.31728,-1.31762 0,-0.72461 0.59267,-1.31728 1.31728,-1.31728"
       style="fill:#ff5533;fill-opacity:1;fill-rule:nonzero;stroke:none;stroke-width:0.35277775"
       id="path116"
       inkscape:connector-curvature="0"
       inkscape:export-xdpi="40.457138"
       inkscape:export-ydpi="40.457138"
       inkscape:export-filename="C:\Users\User PC\Documents\ParkTransit\Accounting\Accounts Admin\logo.png" />
    <g
       id="g118"
       transform="matrix(0.35277777,0,0,-0.35277777,138.25033,249.85488)"
       inkscape:export-xdpi="40.457138"
       inkscape:export-ydpi="40.457138"
       inkscape:export-filename="C:\Users\User PC\Documents\ParkTransit\Accounting\Accounts Admin\logo.png">
      <path
         d="m 0,0 h 9.243 v 13.725 h 4.855 V 0 H 28.569 V -4.482 H 14.098 v -25.675 c 0,-4.761 1.68,-8.776 7.469,-8.776 3.362,0 6.35,1.96 6.35,1.96 l 1.866,-4.2 c 0,0 -4.108,-2.521 -8.403,-2.521 -8.309,0 -12.137,5.601 -12.137,12.604 V -4.482 H 0 Z"
         style="fill:#ff5533;fill-opacity:1;fill-rule:nonzero;stroke:none"
         id="path120"
         inkscape:connector-curvature="0" />
    </g>
    <path
       sodipodi:nodetypes="ccccccccccccc"
       inkscape:connector-curvature="0"
       id="path124"
       style="fill:#ff5533;fill-opacity:1;fill-rule:nonzero;stroke:none;stroke-width:0.35277778"
       d="m 92.417655,207.41285 v 34.40536 h 1.499306 v -32.90605 h 62.301969 v 80.4298 H 93.916961 l -0.07253,-19.76871 -1.48268,0.003 0.05591,21.26493 h 65.300579 v -83.42841 z" />
    <rect
       style="fill:none;fill-opacity:1;stroke:none;stroke-width:1.06500006;stroke-miterlimit:4;stroke-dasharray:none;stroke-opacity:1"
       id="rect1102"
       width="167.94316"
       height="94.173729"
       x="-0.66282123"
       y="203.35207"
       ry="0"
       inkscape:export-xdpi="40.457138"
       inkscape:export-ydpi="40.457138"
       inkscape:export-filename="C:\Users\User PC\Documents\ParkTransit\Accounting\Accounts Admin\logo.png" />
    <rect
       style="opacity:1;fill:#ff5533;fill-opacity:1;stroke:#ffffff;stroke-width:0.52985913;stroke-linejoin:round;stroke-miterlimit:4;stroke-dasharray:none;stroke-dashoffset:0;stroke-opacity:1"
       id="rect860-4-9-2"
       width="11.82811"
       height="4.8234868"
       x="-115.25527"
       y="-319.1929"
       ry="0"
       transform="matrix(1,0,-0.75176959,-0.65942588,0,0)" />
    <rect
       style="opacity:1;fill:#ff5533;fill-opacity:1;stroke:none;stroke-width:0.62713605;stroke-linejoin:round;stroke-miterlimit:4;stroke-dasharray:none;stroke-dashoffset:0;stroke-opacity:1"
       id="rect860-4-1-6-1-3"
       width="8.9497366"
       height="3.8484933"
       x="332.31168"
       y="131.67505"
       ry="0"
       transform="matrix(0.79070566,0.6121965,-0.99999995,-3.0440602e-4,0,0)"
       inkscape:transform-center-x="-5.6161383"
       inkscape:transform-center-y="-1.9588726" />
    <rect
       style="opacity:1;fill:#ff5533;fill-opacity:1;stroke:none;stroke-width:0;stroke-linejoin:round;stroke-miterlimit:4;stroke-dasharray:none;stroke-dashoffset:0;stroke-opacity:1"
       id="rect1640-1"
       width="5.3262711"
       height="5.0706515"
       x="-261.53558"
       y="242.63565"
       transform="matrix(-1,0,-0.5084711,0.86107905,0,0)"
       inkscape:transform-center-x="-1.3072301"
       inkscape:transform-center-y="-3.1756287" />
    <rect
       style="opacity:1;fill:#ff5533;fill-opacity:1;stroke:#ffffff;stroke-width:0.51343298;stroke-linejoin:round;stroke-miterlimit:4;stroke-dasharray:none;stroke-dashoffset:0;stroke-opacity:1"
       id="rect860-4-9-2-6"
       width="10.967892"
       height="4.884274"
       x="-398.49136"
       y="-401.32422"
       ry="0"
       transform="matrix(-1,0,0.68842028,-0.72531201,0,0)" />
    <rect
       style="opacity:1;fill:#ff5533;fill-opacity:1;stroke:none;stroke-width:0.60427827;stroke-linejoin:round;stroke-miterlimit:4;stroke-dasharray:none;stroke-dashoffset:0;stroke-opacity:1"
       id="rect860-4-1-6-1-3-4"
       width="8.9609241"
       height="3.5686054"
       x="416.07898"
       y="420.9826"
       ry="0"
       transform="matrix(-0.73228494,0.68099836,0.99999993,-3.6563116e-4,0,0)"
       inkscape:transform-center-x="5.2077957"
       inkscape:transform-center-y="-2.1817561" />
    <rect
       style="opacity:1;fill:#ff5533;fill-opacity:1;stroke:none;stroke-width:0;stroke-linejoin:round;stroke-miterlimit:4;stroke-dasharray:none;stroke-dashoffset:0;stroke-opacity:1"
       id="rect1640-1-0"
       width="4.9389091"
       height="5.41891"
       x="-32.520538"
       y="322.42966"
       transform="matrix(1,0,0.44119026,0.89741359,0,0)"
       inkscape:transform-center-x="1.2120509"
       inkscape:transform-center-y="-3.5368511" />
  </g>
</svg>
